<?xml version="1.0" encoding="UTF-8"?>
<svg xmlns="http://www.w3.org/2000/svg" xmlns:xlink="http://www.w3.org/1999/xlink" width="252pt" height="50pt" viewBox="0 0 252 50" version="1.1">
<defs>
<linearGradient id="linear0" gradientUnits="userSpaceOnUse" x1="0" y1="0" x2="1" y2="0" gradientTransform="matrix(248.816782,0,0,249.106651,51.390475,-25.818922)">
<stop offset="0" style="stop-color:rgb(0%,100%,100%);stop-opacity:1;"/>
<stop offset="0" style="stop-color:rgb(0%,100%,100%);stop-opacity:1;"/>
<stop offset="1" style="stop-color:rgb(18.823529%,21.176471%,100%);stop-opacity:1;"/>
<stop offset="1" style="stop-color:rgb(18.823529%,21.176471%,100%);stop-opacity:1;"/>
</linearGradient>
</defs>
<g id="surface1">
<path style=" stroke:none;fill-rule:nonzero;fill:url(#linear0);" d="M 99.398438 0 L 53.4375 0.0585938 L 53.4375 8.554688 L 81.589844 8.554688 L 53.4375 43.695312 L 53.4375 49.699219 L 95.75 49.699219 L 95.75 41.210938 L 66.382812 41.210938 Z M 0 8.554688 L 40.601562 8.554688 L 40.601562 0.0585938 L 0 0.0585938 Z M 232.359375 0.175781 C 230.335938 0.175781 228.222656 0.359375 226.078125 0.722656 C 223.851562 1.117188 221.816406 1.828125 220.035156 2.84375 C 218.148438 3.914062 216.597656 5.394531 215.429688 7.230469 C 214.226562 9.101562 213.617188 11.484375 213.617188 14.304688 C 213.617188 16.582031 213.957031 18.5625 214.628906 20.1875 C 215.308594 21.828125 216.207031 23.199219 217.304688 24.265625 C 218.398438 25.335938 219.667969 26.167969 221.078125 26.75 C 222.394531 27.289062 223.757812 27.691406 225.128906 27.9375 C 226.472656 28.175781 227.792969 28.324219 229.050781 28.363281 C 230.097656 28.40625 231.035156 28.441406 231.886719 28.472656 L 236.523438 28.484375 C 237.335938 28.484375 238.113281 28.652344 238.832031 28.980469 C 239.574219 29.320312 240.238281 29.792969 240.800781 30.390625 C 241.363281 30.980469 241.816406 31.695312 242.152344 32.527344 C 242.484375 33.347656 242.652344 34.253906 242.652344 35.214844 C 242.652344 35.921875 242.476562 36.632812 242.125 37.332031 C 241.738281 38.097656 241.234375 38.800781 240.613281 39.402344 C 240.003906 39.992188 239.304688 40.476562 238.546875 40.835938 C 237.847656 41.160156 237.167969 41.328125 236.523438 41.328125 L 215.054688 41.328125 L 215.054688 49.824219 L 236.828125 49.824219 C 238.839844 49.824219 240.746094 49.390625 242.503906 48.523438 C 244.226562 47.679688 245.722656 46.535156 246.957031 45.125 C 248.183594 43.75 249.164062 42.164062 249.882812 40.414062 C 250.605469 38.628906 250.976562 36.773438 250.976562 34.910156 C 250.976562 32.761719 250.675781 30.761719 250.078125 28.96875 C 249.457031 27.121094 248.527344 25.515625 247.300781 24.1875 C 246.085938 22.882812 244.582031 21.835938 242.828125 21.085938 C 241.101562 20.355469 239.121094 19.984375 236.953125 19.984375 L 227.765625 19.984375 C 227.164062 19.984375 226.527344 19.863281 225.867188 19.636719 C 225.214844 19.410156 224.597656 19.058594 224.023438 18.570312 C 223.472656 18.109375 223.007812 17.515625 222.644531 16.808594 C 222.304688 16.132812 222.128906 15.292969 222.128906 14.304688 C 222.128906 13.546875 222.320312 12.886719 222.71875 12.300781 C 223.199219 11.578125 223.8125 10.941406 224.542969 10.410156 C 225.289062 9.863281 226.113281 9.425781 226.992188 9.125 C 227.847656 8.828125 228.625 8.675781 229.296875 8.675781 L 251.160156 8.675781 L 251.160156 0.175781 Z M 166.046875 0.175781 L 166.046875 8.675781 L 184.785156 8.675781 C 185.96875 8.675781 187.207031 8.84375 188.464844 9.167969 C 189.667969 9.480469 190.78125 9.984375 191.761719 10.644531 C 192.703125 11.300781 193.492188 12.191406 194.105469 13.289062 C 194.714844 14.371094 195.023438 15.753906 195.023438 17.394531 C 195.023438 18.789062 194.765625 20.03125 194.257812 21.082031 C 193.75 22.140625 193.058594 23.03125 192.1875 23.734375 C 191.292969 24.460938 190.203125 25.03125 188.949219 25.429688 C 187.660156 25.832031 186.257812 26.042969 184.785156 26.042969 L 166.046875 26.042969 L 166.046875 49.769531 L 174.554688 49.769531 L 174.554688 34.542969 L 184.785156 34.542969 C 187.230469 34.542969 189.59375 34.183594 191.8125 33.46875 C 194.082031 32.742188 196.105469 31.65625 197.820312 30.242188 C 199.566406 28.800781 200.972656 26.980469 201.988281 24.828125 C 203.007812 22.679688 203.527344 20.164062 203.527344 17.363281 C 203.527344 14.472656 202.929688 11.910156 201.765625 9.742188 C 200.617188 7.613281 199.101562 5.808594 197.25 4.375 C 195.433594 2.976562 193.40625 1.910156 191.226562 1.214844 C 189.046875 0.527344 186.878906 0.175781 184.785156 0.175781 Z M 121.390625 2.128906 C 118.394531 3.425781 115.742188 5.214844 113.515625 7.441406 C 111.292969 9.660156 109.503906 12.304688 108.199219 15.292969 C 106.890625 18.308594 106.226562 21.578125 106.226562 25 L 106.226562 26.960938 L 114.550781 26.960938 L 114.550781 25 C 114.550781 22.707031 114.980469 20.550781 115.828125 18.589844 C 116.683594 16.613281 117.871094 14.867188 119.355469 13.402344 C 120.847656 11.9375 122.617188 10.769531 124.617188 9.9375 C 128.585938 8.28125 133.484375 8.285156 137.410156 9.933594 C 139.394531 10.769531 141.15625 11.9375 142.640625 13.402344 C 144.128906 14.867188 145.320312 16.601562 146.171875 18.574219 C 147.019531 20.539062 147.445312 22.691406 147.445312 24.972656 C 147.445312 27.207031 147.019531 29.335938 146.171875 31.304688 C 145.308594 33.289062 144.121094 35.035156 142.640625 36.484375 C 141.132812 37.96875 139.367188 39.144531 137.390625 39.988281 C 135.4375 40.835938 133.316406 41.269531 131.089844 41.269531 L 129.136719 41.269531 L 129.136719 49.765625 L 131.089844 49.765625 C 134.53125 49.765625 137.800781 49.105469 140.808594 47.804688 C 143.792969 46.503906 146.441406 44.722656 148.679688 42.503906 C 150.917969 40.265625 152.707031 37.621094 153.992188 34.652344 C 155.292969 31.636719 155.957031 28.371094 155.957031 24.9375 C 155.957031 21.507812 155.304688 18.242188 154.015625 15.246094 C 152.742188 12.257812 150.957031 9.613281 148.71875 7.382812 C 146.5 5.160156 143.847656 3.382812 140.84375 2.105469 C 137.851562 0.835938 134.496094 0.199219 131.144531 0.199219 C 127.769531 0.199219 124.398438 0.84375 121.390625 2.128906 Z M 0.00390625 19.863281 L 0.00390625 49.765625 L 40.664062 49.765625 L 40.664062 41.265625 L 8.507812 41.265625 L 8.507812 28.363281 L 40.664062 28.363281 L 40.664062 19.863281 Z M 0.00390625 19.863281 "/>
</g>
</svg>
